:version 1.10
:name ASF
:units
  mass 1
  length 1
  angle deg
:documentation
  ASF file generated by Kaydara
:root
  axis xyz
  order  tx ty tz rx ry rz
  position 0 0 0
  orientation 0 0 0
:bonedata
  begin
    id 1
    name RightUpLegDummy
    direction -1 2.30186e-007 8.31532e-007
    length 4.46685
    axis 0 0 0 xyz
  end
  begin
    id 2
    name RightUpLeg
    direction -2.30187e-007 -1 1.24343e-010
    length 16.4045
    axis -3.49089 -0.000906625 0.000286804 xyz
    dof rx ry rz
  end
  begin
    id 3
    name RightLeg
    direction -2.30181e-007 -1 -4.17157e-009
    length 17.5097
    axis 3.68512 0.0193738 -0.131023 xyz
    dof rx ry rz
  end
  begin
    id 4
    name RightFoot
    direction 8.31421e-007 -4.51202e-011 1
    length 6.49508
    axis 4.81691e-005 -0.120479 -0.188788 xyz
    dof rx ry rz
  end
  begin
    id 5
    name RightToes
    direction 0.00124746 -0.014064 0.9999
    length 3.85082
    axis 0.000481921 0.542163 -0.142578 xyz
    dof rx ry rz
  end
  begin
    id 6
    name SpineDummy
    direction 0.0717043 0.9409 -0.331007
    length 10.0032
    axis 0 0 0 xyz
  end
  begin
    id 7
    name Spine
    direction 2.30186e-007 1 4.58806e-011
    length 9.84055
    axis -0.001389 0.000121418 2.40972e-006 xyz
    dof rx ry rz
  end
  begin
    id 8
    name Spine1
    direction 0 0 0
    length 0
    axis -0.001389 0.000121451 1.30017e-006 xyz
    dof rx ry rz
  end
  begin
    id 9
    name HEadDummy
    direction -0.00347485 0.950688 -0.310128
    length 8.00997
    axis -0.001389 0.000121451 1.30017e-006 xyz
  end
  begin
    id 10
    name HEad
    direction -0.0222688 0.980941 0.193023
    length 5.12695
    axis -0.001389 0.000121451 1.30017e-006 xyz
    dof rx ry rz
  end
  begin
    id 11
    name LeftShoulder1Dummy
    direction 0.988871 0.146793 -0.0242004
    length 3.5792
    axis -0.001389 0.000121451 1.30017e-006 xyz
  end
  begin
    id 12
    name LeftShoulder1
    direction 0.993832 0.108932 0.020779
    length 4.16823
    axis -0.001389 0.000121451 1.30017e-006 xyz
    dof rx ry rz
  end
  begin
    id 13
    name LeftArm
    direction 1 3.44807e-006 -8.31404e-007
    length 9.91437
    axis -23.1894 0.134784 0.967509 xyz
    dof rx ry rz
  end
  begin
    id 14
    name LeftForeArm
    direction 1 3.44842e-006 -8.31581e-007
    length 9.08575
    axis -9.91835 -0.06569 -0.177793 xyz
    dof rx ry rz
  end
  begin
    id 15
    name LeftHand
    direction 0.992938 -0.0411636 0.11126
    length 5.32135
    axis -0.00960232 -0.00340091 0.185173 xyz
    dof rx ry rz
  end
  begin
    id 16
    name RightShoulderDummy
    direction -0.988871 0.146793 -0.0241962
    length 3.5792
    axis -0.001389 0.000121451 1.30017e-006 xyz
  end
  begin
    id 17
    name RightShoulder
    direction -0.993832 0.108933 0.0207785
    length 4.16823
    axis 0.215806 0.000203643 -0.0068026 xyz
    dof rx ry rz
  end
  begin
    id 18
    name RightArm
    direction -1 3.90912e-006 8.31284e-007
    length 9.91437
    axis -23.2009 -0.134239 -0.964101 xyz
    dof rx ry rz
  end
  begin
    id 19
    name RightForeArm
    direction -1 3.90882e-006 8.31502e-007
    length 9.08575
    axis -9.92322 0.0658061 0.178867 xyz
    dof rx ry rz
  end
  begin
    id 20
    name RightHand
    direction -0.992843 -0.0414603 0.112003
    length 5.28593
    axis -0.00960638 0.00330671 -0.185228 xyz
    dof rx ry rz
  end
  begin
    id 21
    name LeftUpLegDummy
    direction 1 -2.30186e-007 -8.31532e-007
    length 4.46685
    axis 0 0 0 xyz
  end
  begin
    id 22
    name LeftUpLeg
    direction -2.30187e-007 -1 6.00931e-010
    length 16.4045
    axis -3.48766 0.00143442 -0.000524262 xyz
    dof rx ry rz
  end
  begin
    id 23
    name LeftLeg
    direction -2.30187e-007 -1 1.6669e-009
    length 17.5097
    axis 3.68178 -0.00654042 -0.000285133 xyz
    dof rx ry rz
  end
  begin
    id 24
    name LeftFoot
    direction 8.31532e-007 -4.54478e-011 1
    length 6.49508
    axis 1.87233e-006 4.66016e-005 -8.6538e-006 xyz
    dof rx ry rz
  end
  begin
    id 25
    name LeftToes
    direction 0.00818058 -0.00485161 0.999955
    length 3.85048
    axis 1.06247e-005 4.65869e-005 -8.65513e-006 xyz
    dof rx ry rz
  end
:hierarchy
  begin
    root RightUpLegDummy SpineDummy LeftUpLegDummy
    RightUpLegDummy RightUpLeg
    RightUpLeg RightLeg
    RightLeg RightFoot
    RightFoot RightToes
    SpineDummy Spine
    Spine Spine1
    Spine1 HEadDummy LeftShoulder1Dummy RightShoulderDummy
    HEadDummy HEad
    LeftShoulder1Dummy LeftShoulder1
    LeftShoulder1 LeftArm
    LeftArm LeftForeArm
    LeftForeArm LeftHand
    RightShoulderDummy RightShoulder
    RightShoulder RightArm
    RightArm RightForeArm
    RightForeArm RightHand
    LeftUpLegDummy LeftUpLeg
    LeftUpLeg LeftLeg
    LeftLeg LeftFoot
    LeftFoot LeftToes
  end

:SAMPLES-PER-SECOND 30
:FULLY-SPECIFIED
:DEGREES
111
root  -66.7255 25.675 -20.2854 23.4987 33.0774 9.15595
RightUpLeg  -42.7589 5.55613 -39.5437
RightLeg  64.7661 3.73834 6.61544
RightFoot  -27.7414 -0.557864 -1.8814
RightToes  -57.8191 -0.374073 -0.392209
Spine  16.6851 3.20861 2.65029
Spine1  30.1292 10.7942 -1.56948
HEad  3.77138 6.85532 -14.3181
LeftShoulder1  0 -2.42657e-020 -4.95415e-022
LeftArm  -32.3902 -8.05392 -88.6385
LeftForeArm  36.378 -40.1212 -8.54149
LeftHand  -0.532946 -10.0934 5.66333
RightShoulder  0 2.42657e-020 1.07489e-018
RightArm  -65.0675 24.1421 65.9563
RightForeArm  25.8413 27.7291 5.31392
RightHand  -0.30219 20.5523 -1.29707
LeftUpLeg  -60.9193 4.67091 15.1928
LeftLeg  65.5588 -12.667 -22.3194
LeftFoot  -10.1201 0.304671 3.43983
LeftToes  -60.602 1.71452e-006 7.46813e-008
112
root  -68.1327 26.8747 -19.986 23.6963 35.1119 8.44234
RightUpLeg  -41.5918 3.06961 -34.5674
RightLeg  61.1877 4.10037 6.31319
RightFoot  -26.3384 -0.56038 -2.01716
RightToes  -54.1457 -0.340155 -0.380342
Spine  15.7498 2.16021 2.52425
Spine1  28.8856 8.20939 -1.64664
HEad  3.16347 8.76443 -15.1831
LeftShoulder1  0 -2.42657e-020 -4.95415e-022
LeftArm  -35.4165 -5.32679 -86.2078
LeftForeArm  34.8637 -39.6283 -8.393
LeftHand  -0.453948 -9.63278 5.01713
RightShoulder  0 2.42657e-020 1.07489e-018
RightArm  -58.7366 18.5676 69.803
RightForeArm  15.8239 35.2604 7.16067
RightHand  0.461193 21.0191 2.85655
LeftUpLeg  -56.997 4.34871 17.3088
LeftLeg  55.0659 -16.8969 -20.0036
LeftFoot  -4.02383 0.0308678 0.878671
LeftToes  -60.8256 1.71452e-006 7.46813e-008
113
root  -69.7542 28.2134 -19.6301 24.7269 38.2351 7.54083
RightUpLeg  -40.8471 0.692054 -29.2455
RightLeg  56.877 4.13403 5.4329
RightFoot  -23.4072 -0.430219 -1.69908
RightToes  -52.2031 -0.322545 -0.373195
Spine  14.4987 1.04799 2.44459
Spine1  26.9957 5.20198 -0.965509
HEad  3.30176 10.1544 -15.8407
LeftShoulder1  0 -2.42657e-020 -4.95415e-022
LeftArm  -37.5978 -2.73496 -84.9304
LeftForeArm  32.418 -39.1302 -8.24568
LeftHand  -0.373255 -9.15388 4.29332
RightShoulder  0 2.42657e-020 1.07489e-018
RightArm  -57.6877 14.0313 73.4404
RightForeArm  11.5363 41.7525 9.0593
RightHand  1.41687 22.5952 7.45567
LeftUpLeg  -53.6938 5.01447 18.7017
LeftLeg  42.2302 -21.2686 -16.1264
LeftFoot  5.56888 0.173091 -3.55777
LeftToes  -56.4482 1.71452e-006 7.46813e-008
114
root  -71.246 29.468 -19.2344 25.7583 42.2385 7.43907
RightUpLeg  -39.0899 -2.62968 -24.5325
RightLeg  52.3193 4.4409 4.97335
RightFoot  -19.9791 -0.338201 -1.54241
RightToes  -50.9571 -0.311381 -0.368297
Spine  13.4472 -0.375501 2.16581
Spine1  25.3975 1.54213 -0.435185
HEad  3.54193 11.5793 -16.003
LeftShoulder1  0 -2.42657e-020 -4.95415e-022
LeftArm  -38.9715 0.0899454 -84.3472
LeftForeArm  30.4822 -39.7889 -8.4447
LeftHand  -0.336051 -8.5901 4.1056
RightShoulder  0 2.42657e-020 1.07489e-018
RightArm  -55.6809 10.4775 76.3325
RightForeArm  9.63112 48.4374 11.4844
RightHand  1.78324 22.4115 9.35614
LeftUpLeg  -51.2236 6.16116 17.1297
LeftLeg  31.2847 -19.0232 -9.6753
LeftFoot  14.3071 0.751579 -5.98308
LeftToes  -40.0088 1.71452e-006 7.46813e-008
115
root  -72.5391 30.4314 -18.8562 25.2721 45.5701 6.61136
RightUpLeg  -37.0198 -5.30236 -20.0881
RightLeg  48.0705 4.90269 4.74274
RightFoot  -16.9718 -0.277996 -1.4856
RightToes  -49.1562 -0.29544 -0.360793
Spine  12.7434 -1.38245 1.97122
Spine1  24.3199 -1.31575 0.310796
HEad  4.42132 12.9131 -15.9786
LeftShoulder1  0 -2.42657e-020 -4.95415e-022
LeftArm  -39.598 2.61141 -84.763
LeftForeArm  30.6561 -40.8309 -8.76573
LeftHand  -0.316528 -8.55138 3.86497
RightShoulder  0 2.42657e-020 1.07489e-018
RightArm  -54.712 6.99876 78.4545
RightForeArm  14.0685 59.2016 17.2661
RightHand  1.74191 22.5601 9.08956
LeftUpLeg  -48.9679 6.57566 15.6312
LeftLeg  28.9776 -16.1817 -7.50657
LeftFoot  11.0276 0.373112 -3.86371
LeftToes  -37.6078 1.71452e-006 7.46813e-008
116
root  -73.6749 31.0718 -18.46 23.7379 47.6969 5.41117
RightUpLeg  -35.1887 -4.78953 -16.7518
RightLeg  44.9038 4.03142 3.49254
RightFoot  -15.1446 -0.185504 -1.01786
RightToes  -46.3545 -0.27113 -0.348133
Spine  12.5368 -1.60351 1.95619
Spine1  23.9606 -1.90646 0.154571
HEad  5.60406 14.2895 -16.225
LeftShoulder1  0 -2.42657e-020 -4.95415e-022
LeftArm  -39.5701 3.99712 -85.7251
LeftForeArm  31.9789 -41.5571 -8.995
LeftHand  -0.322994 -8.73927 3.85815
RightShoulder  0 2.42657e-020 1.07489e-018
RightArm  -52.7749 3.97903 78.7994
RightForeArm  29.9448 71.4841 32.0077
RightHand  1.61402 22.548 8.45595
LeftUpLeg  -47.1601 7.38437 13.8266
LeftLeg  34.0697 -12.6563 -7.32569
LeftFoot  7.37466 0.141847 -2.2008
LeftToes  -38.4494 1.71452e-006 7.46813e-008
117
root  -74.7053 31.5444 -18.056 22.0707 50.2218 3.75889
RightUpLeg  -33.7385 -4.05617 -13.3668
RightLeg  42.4223 2.37852 1.87988
RightFoot  -13.5743 -0.0966731 -0.434735
RightToes  -44.0679 -0.251768 -0.336929
Spine  12.212 -1.8288 2.13808
Spine1  23.3847 -2.20077 -0.156362
HEad  6.91582 16.3051 -16.4343
LeftShoulder1  0 -2.42657e-020 -4.95415e-022
LeftArm  -39.1586 5.67149 -86.8647
LeftForeArm  32.8617 -42.8718 -9.42488
LeftHand  -0.315341 -8.82234 3.71903
RightShoulder  0 2.42657e-020 1.07489e-018
RightArm  -49.749 2.05254 77.9718
RightForeArm  75.1539 79.0465 66.9967
RightHand  0.981127 25.2614 4.74742
LeftUpLeg  -45.9059 6.61154 12.8456
LeftLeg  41.6912 -8.6746 -6.72828
LeftFoot  3.82615 0.0320113 -0.958357
LeftToes  -37.4923 1.71452e-006 7.46813e-008
118
root  -75.5232 31.914 -17.6888 20.4373 53.0595 2.54559
RightUpLeg  -31.9334 -4.70667 -10.5425
RightLeg  40.3706 1.34475 0.978407
RightFoot  -12.3885 -0.0566183 -0.144125
RightToes  -41.4402 -0.230089 -0.323112
Spine  12.0065 -2.24493 2.02956
Spine1  22.9487 -2.79685 -1.072
HEad  8.29009 18.6825 -16.1338
LeftShoulder1  0 -2.42657e-020 -4.95415e-022
LeftArm  -38.725 7.13784 -87.4608
LeftForeArm  33.3548 -43.7658 -9.72824
LeftHand  -0.284162 -8.55709 3.42969
RightShoulder  0 2.42657e-020 1.07489e-018
RightArm  -45.0046 2.3938 76.5687
RightForeArm  118.237 79.3325 108.55
RightHand  0.747837 25.6889 3.64987
LeftUpLeg  -43.9613 5.98544 10.9209
LeftLeg  48.9987 -6.33142 -6.36967
LeftFoot  1.6026 0.00536018 -0.383255
LeftToes  -36.5357 1.71452e-006 7.46813e-008
119
root  -76.1956 32.167 -17.3796 18.7926 55.372 1.58238
RightUpLeg  -30.3642 -6.10453 -8.25537
RightLeg  38.8064 0.969244 0.66116
RightFoot  -11.4908 -0.0428311 -0.0481529
RightToes  -39.9828 -0.218345 -0.315025
Spine  11.7692 -2.47907 1.61812
Spine1  22.3193 -3.07577 -2.29079
HEad  10.258 20.8139 -15.2149
LeftShoulder1  0 -2.42657e-020 -4.95415e-022
LeftArm  -38.1562 7.85418 -87.7728
LeftForeArm  33.43 -42.6527 -9.3514
LeftHand  -0.291419 -8.4247 3.58812
RightShoulder  0 2.42657e-020 1.07489e-018
RightArm  -37.9578 3.65421 75.1304
RightForeArm  138.45 77.9445 123.173
RightHand  0.0578624 24.5556 0.636047
LeftUpLeg  -40.7557 6.36101 8.47348
LeftLeg  54.3212 -5.5536 -6.73738
LeftFoot  -0.141769 -2.43238e-005 -0.0196696
LeftToes  -37.1646 1.71452e-006 7.46813e-008
120
root  -76.9083 32.3289 -17.1193 17.0814 58.1989 -0.0799271
RightUpLeg  -29.6065 -7.72242 -5.69084
RightLeg  37.6878 0.435936 0.275352
RightFoot  -10.844 -0.0290159 0.0718513
RightToes  -38.2956 -0.205013 -0.305293
Spine  11.3465 -2.59775 1.34909
Spine1  21.3397 -3.34651 -2.7635
HEad  12.4863 22.0693 -14.0383
LeftShoulder1  0 -2.42657e-020 -4.95415e-022
LeftArm  -37.6183 7.20156 -88.2773
LeftForeArm  33.9445 -39.1275 -8.24374
LeftHand  -0.277247 -8.50393 3.36054
RightShoulder  0 2.42657e-020 1.07489e-018
RightArm  -30.907 5.57516 74.5786
RightForeArm  135.352 78.7235 116.376
RightHand  -0.578427 24.9293 -2.24687
LeftUpLeg  -37.7681 8.13495 6.38464
LeftLeg  56.8269 -5.83816 -7.73706
LeftFoot  -1.75832 0.00474234 0.309028
LeftToes  -37.5576 1.71452e-006 7.46813e-008
